PathFileType	4	(X/Y/Z)	c:/Users/goper/Files/vsCode/490R/osim_files/A01/A01_Fast_06.trc
DataRate	CameraRate	NumFrames	NumMarkers	Units                	OrigDataRate	OrigDataStartFrame	OrigNumFrames
120.00	120.00	5	36	mm	120.0	764	1222
                Frame#	Time	Mobility_markerset:LPSIS			Mobility_markerset:LASIS			Mobility_markerset:LTH1			Mobility_markerset:LTH2			Mobility_markerset:LTH3			Mobility_markerset:LTH4			Mobility_markerset:LLFE			Mobility_markerset:LMFE			Mobility_markerset:LSH1			Mobility_markerset:LSH2			Mobility_markerset:LSH3			Mobility_markerset:LSH4			Mobility_markerset:LLMAL			Mobility_markerset:LMMAL			Mobility_markerset:LCAL			Mobility_markerset:LMTP5			Mobility_markerset:LTOE			Mobility_markerset:LMTP1			Mobility_markerset:RPSIS			Mobility_markerset:RASIS			Mobility_markerset:RTH1			Mobility_markerset:RTH2			Mobility_markerset:RTH3			Mobility_markerset:RTH4			Mobility_markerset:RLFE			Mobility_markerset:RMFE			Mobility_markerset:RSH1			Mobility_markerset:RSH2			Mobility_markerset:RSH3			Mobility_markerset:RSH4			Mobility_markerset:RLMAL			Mobility_markerset:RMMAL			Mobility_markerset:RCAL			Mobility_markerset:RMTP1			Mobility_markerset:RTOE			Mobility_markerset:RMTP5		
		X1	Y1	Z1	X2	Y2	Z2	X3	Y3	Z3	X4	Y4	Z4	X5	Y5	Z5	X6	Y6	Z6	X7	Y7	Z7	X8	Y8	Z8	X9	Y9	Z9	X10	Y10	Z10	X11	Y11	Z11	X12	Y12	Z12	X13	Y13	Z13	X14	Y14	Z14	X15	Y15	Z15	X16	Y16	Z16	X17	Y17	Z17	X18	Y18	Z18	X19	Y19	Z19	X20	Y20	Z20	X21	Y21	Z21	X22	Y22	Z22	X23	Y23	Z23	X24	Y24	Z24	X25	Y25	Z25	X26	Y26	Z26	X27	Y27	Z27	X28	Y28	Z28	X29	Y29	Z29	X30	Y30	Z30	X31	Y31	Z31	X32	Y32	Z32	X33	Y33	Z33	X34	Y34	Z34	X35	Y35	Z35	X36	Y36	Z36

764	6.35833	-1828.79395	1025.67236	254.18372	-2048.62695	998.26825	382.82727	-1987.26770	672.07520	437.53958	-2004.91296	627.42200	438.83090	-2041.76233	687.46814	457.36588	-2050.33203	642.94287	453.39676	-2039.31897	513.84180	427.16830	-2099.56714	492.18909	304.38327	-1896.49976	441.83838	372.64685	-1859.20850	412.83319	365.71930	-1927.28223	389.68369	386.33926	-1888.28931	369.72000	375.13281	-1680.96008	244.63680	300.98685	-1702.78906	243.53741	217.31607	-1627.23547	285.29379	233.30841	-1713.46533	107.33673	346.37207	-1767.68066	95.28260	293.66159	-1759.98596	95.69312	255.61699	-1845.38879	1032.51038	153.74602	-2087.70459	997.92755	124.48099	-2031.17029	662.88531	48.59990	-2048.46631	623.98798	60.02066	-2090.56519	682.68329	54.54162	-2097.26074	640.93878	63.42286	-2121.68286	502.34360	123.27884	-2109.03442	523.23065	239.80914	-2019.58508	307.50729	110.87343	-2018.33704	262.66092	113.16114	-2079.98169	300.67429	116.26384	-2071.61792	256.34818	118.58737	-2022.03699	86.90071	154.72089	-2031.88550	111.13292	238.90491	-1959.88367	64.15268	199.01128	-2162.82666	43.27674	270.47342	-2199.96680	59.74757	227.47720	-2153.04395	32.52178	149.09839
765	6.36667	-1840.19922	1029.28137	254.53937	-2058.09692	1002.33905	382.99014	-2006.22656	676.88727	439.76270	-2024.92847	632.71716	441.13104	-2060.75928	693.77753	458.61618	-2070.17529	649.34918	454.88751	-2062.08691	518.41229	428.64462	-2121.01392	500.25104	304.78076	-1921.04016	442.32483	375.76276	-1884.72571	412.15015	369.22473	-1954.50842	390.63177	388.38608	-1915.23340	370.11713	377.61530	-1711.16736	238.71823	305.46536	-1731.43335	239.37662	221.30513	-1655.00024	278.18344	239.30898	-1749.12646	102.07257	348.54330	-1802.85925	92.62073	295.01483	-1794.33972	93.05664	256.98352	-1855.48022	1035.70911	154.20398	-2098.04126	1000.44110	124.52306	-2036.93518	665.31506	47.88208	-2053.39868	626.00189	59.01014	-2096.20020	683.97430	54.01298	-2102.75879	642.25800	62.43690	-2123.92725	502.69263	122.06943	-2111.77100	523.64764	238.51326	-2020.56873	308.19287	110.03667	-2019.10840	263.44257	112.32933	-2081.00781	301.07236	115.22480	-2072.36523	256.79910	117.60692	-2022.30237	87.33105	154.19263	-2032.25354	111.82639	238.24261	-1960.24121	64.90483	198.76788	-2162.91895	43.55369	270.28073	-2199.82031	59.68075	227.40417	-2153.16650	32.49696	148.83221
766	6.37500	-1851.45850	1032.75281	255.08116	-2071.02661	1007.63135	383.13007	-2025.27734	681.58136	442.42810	-2045.03601	637.77954	443.74307	-2079.89624	699.80939	459.77686	-2092.14136	655.06158	455.12860	-2084.72290	523.49603	430.12640	-2141.77905	508.12408	304.89481	-1945.49414	442.67099	378.70898	-1910.29431	411.32993	372.40036	-1980.89441	392.00784	390.16650	-1942.19116	370.36490	380.03650	-1742.02332	232.20244	309.87506	-1761.30737	233.98875	225.74431	-1683.38306	270.08163	245.03862	-1785.62830	96.59575	351.28281	-1838.80774	89.55157	296.86307	-1829.60876	89.90293	258.97000	-1866.02795	1038.72083	154.87537	-2108.32886	1003.08710	124.65117	-2042.45520	667.60767	47.41915	-2057.93384	628.07086	58.23939	-2101.87842	685.15637	53.47714	-2107.65503	643.43042	61.54285	-2125.79492	503.12576	120.51971	-2114.37964	524.22449	237.19386	-2021.75122	308.93695	109.08266	-2019.92798	264.13828	111.51865	-2082.07300	301.59467	114.24048	-2073.22754	257.42566	116.67459	-2022.24377	87.43640	153.76999	-2032.59534	112.58702	237.55586	-1960.48877	65.34209	198.67628	-2162.83276	43.47513	269.76407	-2199.86255	59.61551	227.11938	-2153.39038	32.53927	148.68207
767	6.38333	-1862.95325	1035.87244	255.95912	-2083.38330	1012.69940	382.72684	-2044.47180	685.86981	446.66211	-2064.96216	642.64111	446.54254	-2099.06201	705.63867	461.08316	-2112.38013	661.42114	455.77838	-2106.77197	528.61658	431.06573	-2162.51904	515.77740	305.16934	-1970.02100	442.82318	381.31018	-1935.87683	410.22638	375.39304	-2007.71802	393.39536	391.90643	-1968.18677	370.35901	383.81522	-1773.61841	225.14891	314.49014	-1791.83887	227.64877	230.53552	-1712.64465	261.06720	250.53938	-1822.75183	91.10493	354.65906	-1875.90369	86.36053	299.26508	-1865.63757	86.39182	261.65295	-1876.40759	1041.61987	155.72864	-2118.23315	1005.85406	124.73904	-2046.40210	669.86932	46.49323	-2062.23071	629.84467	57.59523	-2107.46069	686.11243	52.90299	-2112.15479	644.31622	60.74495	-2127.27686	503.51114	118.77598	-2117.29224	524.42358	236.04034	-2022.47693	309.94247	108.06955	-2020.54602	265.03494	110.63197	-2083.22314	302.14111	113.22232	-2074.29102	258.03256	115.75023	-2022.38293	87.83595	153.27905	-2032.91565	113.37185	236.81882	-1960.70386	66.04119	198.49506	-2162.93042	44.36296	270.13022	-2199.90869	59.55190	226.91190	-2153.41724	32.31641	148.52980
768	6.39167	-1873.75647	1038.93933	256.67819	-2093.74146	1016.58368	382.34015	-2063.32593	690.20428	449.39566	-2084.98340	647.53571	449.07584	-2118.11084	711.25836	462.43155	-2132.33179	667.29846	456.71790	-2128.31348	533.87683	431.78073	-2182.13330	522.21790	305.27301	-1994.38196	442.82730	383.56601	-1961.34485	408.99066	377.95181	-2034.38257	394.62106	393.69495	-1995.31335	370.43152	386.23874	-1805.96252	217.60538	318.87607	-1822.75598	221.05247	234.31264	-1742.75024	251.26363	255.63391	-1860.58325	85.63216	358.62527	-1913.14648	82.85657	302.61411	-1902.46814	82.45699	265.12296	-1887.10059	1044.32068	156.83704	-2128.09277	1008.65344	124.79393	-2051.45044	671.70422	46.50523	-2065.87671	631.47510	56.79847	-2112.99121	686.89844	52.39766	-2116.48169	645.07178	59.89205	-2128.68042	503.68396	117.04375	-2120.17456	524.34125	235.04723	-2023.95056	310.52420	107.46857	-2021.31189	265.80194	109.95481	-2084.15186	302.52411	112.39604	-2074.83765	258.43280	114.96185	-2022.62915	88.18907	152.76097	-2033.36328	114.02888	236.29866	-1961.02319	66.79749	198.29103	-2162.82837	44.36491	269.82300	-2199.98486	59.47002	226.69640	-2153.52710	32.12633	148.37201
